<?xml version="1.0" encoding="utf-8"?>
<svg width="172.23878mm" height="178.42825mm" viewBox="0 0 172.23878 178.42825" version="1.1" id="svg897" xmlns="http://www.w3.org/2000/svg">
  <g id="layer1" transform="translate(-22.194965,-139.06568)">
    <g id="g1565">
      <path id="path1474" d="m 72.733293,317.07863 c -1.361631,-0.49847 -2.451254,-1.55699 -2.668064,-2.5919 -0.09479,-0.45249 -0.887955,-3.44209 -1.762575,-6.64355 -0.874622,-3.20145 -1.758182,-6.47567 -1.96347,-7.27604 -0.205287,-0.80036 -0.549005,-1.77123 -0.763823,-2.15749 -0.214815,-0.38625 -0.392591,-0.98156 -0.395057,-1.32291 -0.0024,-0.34135 -0.302136,-1.6922 -0.66593,-3.00189 -0.363797,-1.30969 -0.9467,-3.45281 -1.295344,-4.7625 -0.348645,-1.30969 -1.246744,-4.5839 -1.995776,-7.27604 -1.731862,-6.22456 -10.301894,-37.74178 -12.302496,-45.24375 -1.604707,-6.01742 -4.785399,-17.50917 -7.664668,-27.69223 -0.95309,-3.37078 -1.920018,-6.93557 -2.14873,-7.92175 -0.228711,-0.98618 -0.812734,-2.81218 -1.297829,-4.05777 -0.485094,-1.24559 -1.143008,-3.3958 -1.46203,-4.77825 -0.319022,-1.38245 -0.880472,-3.52557 -1.247667,-4.7625 -0.838945,-2.82606 -1.289341,-4.60016 -1.511344,-5.95312 -0.09551,-0.58209 -0.422917,-1.78437 -0.727569,-2.67174 l -0.553912,-1.6134 -1.584273,-0.29463 c -3.367624,-0.62627 -6.352899,-2.59717 -7.747418,-5.11489 -0.689098,-1.24412 -0.784695,-1.6772 -0.780207,-3.53451 0.0063,-2.58921 0.751446,-4.23394 2.694341,-5.94677 2.628535,-2.31728 4.842938,-3.00583 8.528498,-2.65188 4.09896,0.39366 6.650427,1.4787 8.347661,3.54995 1.174319,1.4331 1.723344,2.99496 1.723344,4.90254 0,2.14889 -0.644227,3.77637 -2.144739,5.41817 -0.712164,0.77922 -1.295222,1.57866 -1.295683,1.77654 -4.49e-4,0.19788 0.255009,1.22298 0.56771,2.27801 0.613476,2.06982 0.851185,2.23634 2.02353,1.41753 1.630613,-1.13888 8.022975,-5.31683 10.18573,-6.65724 1.2788,-0.79256 3.064737,-1.90525 3.96875,-2.47264 10.342637,-6.4914 23.25964,-12.69309 31.144703,-14.95315 4.395652,-1.2599 7.357829,-1.67992 11.007561,-1.56079 2.969803,0.0969 3.329043,0.16689 4.947013,0.96341 2.94132,1.448 4.39043,3.57812 4.83811,7.11175 0.24832,1.96009 0.75113,2.3322 3.114,2.30449 4.7512,-0.0557 12.37366,-3.54401 26.76103,-12.24678 7.66932,-4.63909 12.82096,-7.00883 19.41363,-8.93019 1.21865,-0.35516 2.72815,-0.87918 3.35445,-1.1645 1.21773,-0.55474 3.99422,-1.25073 8.05588,-2.01939 1.97274,-0.37334 3.79439,-0.47235 8.46666,-0.46018 5.53936,0.0144 6.12783,0.0628 8.46667,0.69599 1.38245,0.37426 2.87073,0.83244 3.30729,1.01816 0.74481,0.31686 0.63877,0.35012 -1.71979,0.53936 -5.14369,0.4127 -10.59401,1.58752 -14.73637,3.17642 -4.64566,1.78195 -11.29713,5.58912 -13.08619,7.49029 -0.57173,0.60755 -1.7696,1.63376 -2.66193,2.28048 -1.91305,1.38647 -3.42754,2.89497 -3.29493,3.28191 0.12142,0.3543 5.13667,0.18661 5.86378,-0.19607 0.82956,-0.43658 11.81092,-0.30635 16.40627,0.19458 6.92355,0.75472 12.38066,2.07295 16.27187,3.93067 l 1.71979,0.82106 -1.05833,0.0791 c -6.472,0.48397 -13.36204,2.00156 -19.57917,4.31247 -5.69968,2.11858 -13.02468,5.59809 -13.55931,6.44093 -0.10946,0.17257 -1.27058,0.86127 -2.58027,1.53045 -5.47455,2.79721 -10.6883,6.06499 -16.40417,10.28149 -1.30969,0.96614 -4.01493,2.84952 -6.01165,4.1853 -16.82552,11.25603 -28.99005,15.40364 -35.22483,12.01025 -1.243065,-0.67656 -2.083691,-1.65225 -3.043628,-3.53264 -0.709526,-1.38987 -1.672712,-1.91863 -3.684083,-2.02242 -4.550198,-0.23482 -12.37099,2.93281 -22.944145,9.293 -6.150629,3.69985 -18.509645,11.95025 -18.936865,12.6415 -0.0988,0.15986 0.02945,0.96243 0.284996,1.78348 3.050574,9.80121 4.276,13.79674 6.341036,20.67511 1.332497,4.43839 2.767298,9.14135 3.188441,10.45104 0.421143,1.30969 1.910694,6.13172 3.310112,10.71563 3.557143,11.6517 7.872119,25.42415 9.24282,29.50104 1.230436,3.6597 2.124868,6.54203 3.161011,10.18646 1.528958,5.3778 3.139665,10.54243 3.640376,11.67263 0.654777,1.47796 0.499358,2.51196 -0.525095,3.49344 -1.481309,1.41919 -4.981326,1.93615 -7.317703,1.08083 z" style="fill-opacity: 1; stroke-width: 1;"/>
    </g>
  </g>
</svg>